<svg xmlns="http://www.w3.org/2000/svg" xmlns:xlink="http://www.w3.org/1999/xlink" width="400" zoomAndPan="magnify" viewBox="0 0 300 112.499997" height="150" preserveAspectRatio="xMidYMid meet" version="1.0"><defs><g/></defs><g fill="#ffffff" fill-opacity="1"><g transform="translate(45.554696, 100.273544)"><g><path d="M 29.703125 -2.675781 C 30.917969 -3.292969 35.777344 -5.535156 35.394531 -6.28125 L 34.964844 -7.59375 C 34.820312 -8.105469 34.625 -8.714844 34.390625 -9.183594 C 33.292969 -11.328125 32.152344 -13.335938 30.820312 -15.953125 L 29.199219 -19.128906 C 28.628906 -20.25 28.101562 -21.511719 27.53125 -22.628906 C 27.246094 -23.191406 26.910156 -23.84375 26.671875 -24.546875 L 25.859375 -26.601562 C 25.332031 -27.628906 25.136719 -28.707031 24.660156 -29.875 L 23.9375 -32.214844 L 23.742188 -39.058594 L 23.609375 -44.167969 L 23.492188 -47.167969 L 23.308594 -52.371094 L 22.933594 -58.179688 L 22.511719 -64.085938 L 22.242188 -68.304688 L 21.882812 -72.472656 L 21.507812 -78.285156 L 21.214844 -79.78125 L 20.976562 -80.25 C 20.507812 -80.480469 20.085938 -80.382812 19.617188 -80.144531 C 18.777344 -79.714844 9.574219 -75.375 8.734375 -75.183594 C 9.363281 -72.328125 8.640625 -74.898438 9.304688 -68.292969 L 9.765625 -63.234375 L 10.375 -57.425781 C 10.53125 -55.269531 10.644531 -52.972656 10.847656 -50.957031 L 11.167969 -46.179688 L 11.277344 -43.882812 L 11.304688 -40.835938 C 10.5 -41.484375 9.933594 -42.136719 9.082031 -42.878906 L 7.574219 -44.226562 L 6.011719 -45.902344 L 4.359375 -47.53125 C 3.835938 -48.089844 3.082031 -48.644531 2.515625 -49.296875 L 1.285156 -50.554688 C 0.71875 -51.207031 0.101562 -51.953125 -0.558594 -52.554688 L -5.757812 -57.90625 L -9.113281 -61.253906 L -12.328125 -64.558594 C -13.886719 -66 -15.351562 -67.488281 -16.816406 -68.742188 L -19.175781 -70.835938 C -19.789062 -71.34375 -20.3125 -71.902344 -20.875 -72.320312 C -24.179688 -74.875 -24.140625 -75.953125 -25.507812 -76.785156 L -38.117188 -70.355469 C -38.582031 -70.117188 -34.851562 -66.957031 -34.429688 -66.585938 L -28.613281 -60.726562 C -24.695312 -57.425781 -21.148438 -53.46875 -19.070312 -51.46875 L -17.558594 -50.121094 C -17.085938 -49.65625 -16.332031 -49.101562 -15.8125 -48.542969 L -12.832031 -45.472656 C -11.554688 -44.121094 -10.1875 -42.820312 -8.863281 -41.378906 L -7.539062 -39.933594 L -5.503906 -37.792969 L -2.148438 -34.210938 L -0.160156 -32.164062 C 2.292969 -29.886719 4.515625 -27.605469 6.878906 -25.28125 L 8.71875 -23.746094 L 13.195312 -14.96875 C 13.816406 -13.753906 14.527344 -12.585938 15.148438 -11.375 L 20.007812 -1.847656 L 22.980469 0.519531 C 25.269531 -0.527344 27.464844 -1.53125 29.703125 -2.675781 Z M 29.703125 -2.675781 "/></g></g></g><g fill="#ffffff" fill-opacity="1"><g transform="translate(93.698465, 75.031276)"><g><path d="M -7.597656 -60.476562 C -8.101562 -59.011719 -7.71875 -55.996094 -7.589844 -53.890625 L -6.597656 -47.785156 C -4.839844 -48.070312 -1.5625 -48.816406 1.511719 -49.527344 C 2.339844 -49.664062 3.027344 -49.988281 3.753906 -50.105469 C 5.203125 -50.339844 6.925781 -50.832031 8.0625 -50.382812 C 8.097656 -50.175781 8.027344 -49.949219 8.058594 -49.742188 L 7.964844 -47.710938 C 7.964844 -47.074219 7.976562 -46.332031 7.871094 -45.675781 L 7.507812 -41.371094 L 6.578125 -32.722656 L 6.269531 -28.742188 L 5.964844 -21.46875 L 5.816406 -19.109375 C 5.621094 -17.695312 5.667969 -16.109375 5.695312 -14.628906 L 5.453125 -10.234375 L 5.277344 -5.425781 L 5.070312 -0.824219 C 5.097656 0.660156 4.921875 2.175781 4.828125 3.570312 L 4.804688 5.378906 C 4.640625 7.636719 4.285156 10.03125 4.589844 11.894531 L 4.6875 12.515625 C 4.976562 14.273438 12.664062 13.875 15.042969 13.488281 C 18.355469 12.949219 19.273438 11.417969 19.109375 5.816406 L 19.136719 3.371094 C 19.105469 2.523438 19.28125 1.644531 19.265625 0.90625 L 19.328125 -1.335938 C 19.417969 -2.730469 19.542969 -3.917969 19.71875 -4.796875 C 22.792969 -6.148438 26.894531 -6.390625 30.105469 -6.910156 L 36.003906 -7.867188 C 36.519531 -7.953125 36.917969 -8.125 37.332031 -8.191406 C 37.746094 -8.257812 38.140625 -8.429688 38.554688 -8.496094 C 39.375 -6.71875 40.847656 -4.195312 41.117188 -2.539062 L 42.109375 -0.363281 L 43.183594 1.691406 L 44.246094 3.644531 C 44.519531 4.023438 44.585938 4.4375 44.863281 4.816406 L 45.890625 6.5625 C 46.195312 7.148438 46.609375 7.71875 47.003906 8.1875 L 48.78125 7.367188 L 49.972656 6.855469 C 50.488281 6.769531 50.921875 6.808594 51.335938 6.738281 C 54.546875 5.582031 59.738281 4.207031 60.863281 2.640625 C 60.574219 2.15625 60.042969 1.5 59.855469 1 L 58.644531 -1.882812 L 58.113281 -3.179688 C 58.078125 -3.382812 57.941406 -3.574219 57.910156 -3.78125 C 57.808594 -4.402344 57.792969 -5.144531 57.691406 -5.765625 L 57.335938 -6.664062 C 57.148438 -7.164062 56.855469 -7.648438 56.566406 -8.128906 L 54 -12.8125 C 53.675781 -13.503906 53.367188 -14.089844 52.9375 -14.765625 L 51.757812 -16.800781 C 50.882812 -18.253906 50.234375 -19.636719 49.34375 -21.191406 L 48.25 -23.347656 L 46.25 -27.164062 L 45.617188 -28.445312 C 45.136719 -29.429688 44.640625 -30.515625 44.25 -31.621094 L 42.871094 -35.539062 L 40.925781 -40.320312 L 39.199219 -44.394531 C 38.84375 -45.292969 38.378906 -46.175781 37.917969 -47.054688 L 36.960938 -49.023438 L 36.019531 -50.886719 L 34.210938 -54.84375 L 33.046875 -57.414062 C 33.460938 -57.484375 33.964844 -57.671875 34.375 -57.738281 L 36.445312 -58.074219 C 37.171875 -58.191406 37.773438 -58.394531 38.5 -58.515625 C 39.222656 -58.632812 39.949219 -58.75 40.65625 -58.96875 L 42.675781 -59.617188 C 42.882812 -59.652344 43.191406 -59.703125 43.382812 -59.839844 C 44.144531 -60.386719 43.886719 -61.300781 43.71875 -62.335938 C 43.417969 -64.199219 42.515625 -71.0625 41.273438 -70.859375 C 37.339844 -70.222656 32.855469 -69.066406 29.851562 -68.578125 L 28.09375 -68.292969 C 24.472656 -67.707031 21.277344 -66.441406 18.589844 -66.003906 L 13.152344 -64.804688 C 12.652344 -64.617188 12.238281 -64.550781 11.722656 -64.464844 L 7.480469 -63.777344 C 6.753906 -63.65625 6.152344 -63.453125 5.425781 -63.335938 L 1.957031 -62.453125 C -0.835938 -62 -3.457031 -61.148438 -6.253906 -60.695312 Z M 35.574219 -17.039062 L 23.257812 -15.039062 C 21.914062 -14.820312 20.757812 -14.738281 19.519531 -14.535156 L 17.964844 -14.285156 L 18.09375 -20.039062 C 18.007812 -20.558594 18.199219 -21.332031 18.21875 -21.867188 L 18.351562 -24.96875 L 18.71875 -29.914062 C 18.332031 -32.292969 18.945312 -35.050781 19.109375 -37.304688 L 19.488281 -41.511719 L 19.972656 -46.367188 L 20.097656 -47.558594 C 20.242188 -48.644531 20.382812 -49.726562 20.421875 -50.796875 C 21.746094 -49.84375 22.769531 -46.824219 23.175781 -45.613281 L 23.585938 -44.40625 C 23.789062 -43.800781 24.183594 -43.335938 24.386719 -42.730469 L 25.105469 -40.9375 L 25.804688 -39.246094 L 26.316406 -38.054688 C 26.523438 -37.449219 26.917969 -36.980469 27.121094 -36.378906 L 28.519531 -32.992188 C 28.65625 -32.167969 29.289062 -31.527344 29.527344 -30.714844 L 30.945312 -27.226562 C 31.148438 -26.625 31.542969 -26.15625 31.746094 -25.550781 L 32.242188 -24.464844 C 32.617188 -23.464844 32.976562 -22.566406 33.457031 -21.582031 L 34.769531 -18.714844 C 34.957031 -18.214844 35.179688 -17.507812 35.574219 -17.039062 Z M 35.574219 -17.039062 "/></g></g></g><g fill="#ffffff" fill-opacity="1"><g transform="translate(144.740547, 65.102549)"><g><path d="M 65.613281 -50.359375 C 62.617188 -50.867188 60.101562 -51.082031 58.050781 -50.894531 L 57.148438 -49.347656 L 53.722656 -42.910156 L 52.820312 -41.359375 L 50.171875 -36.386719 L 47.816406 -31.890625 L 46.902344 -30.238281 L 45.964844 -28.484375 L 44.199219 -24.953125 L 42.675781 -22.234375 L 41.777344 -20.6875 L 41.171875 -19.621094 L 40.375 -18.054688 L 39.472656 -16.503906 L 38.886719 -15.539062 C 39.042969 -16.46875 38.753906 -17.902344 38.703125 -18.867188 L 38.4375 -22.316406 L 38.21875 -25.433594 L 37.734375 -30.726562 L 37.191406 -35.710938 L 36.839844 -39.914062 L 36.386719 -44.140625 L 36.300781 -45.535156 L 35.695312 -51.378906 L 35.476562 -53.222656 L 35.34375 -54.949219 L 34.972656 -59.050781 L 34.941406 -59.480469 C 28.082031 -60.429688 22.15625 -61.21875 17.226562 -61.628906 C 16.492188 -57.285156 15.535156 -52.875 14.472656 -48.484375 L 13.53125 -44.175781 C 13.425781 -43.554688 13.21875 -42.953125 13.113281 -42.332031 L 12.796875 -40.472656 C 12.222656 -37.0625 11.214844 -33.617188 10.621094 -30.101562 L 9.417969 -24.246094 C 9.171875 -22.796875 8.773438 -21.695312 8.511719 -20.144531 C 8.421875 -19.628906 8.230469 -19.128906 8.109375 -18.40625 C 7.988281 -17.683594 7.761719 -16.976562 7.605469 -16.046875 L 7.253906 -13.976562 C 6.992188 -12.425781 6.472656 -10.601562 6.105469 -9.070312 L 5.878906 -7.726562 C 5.738281 -6.898438 5.496094 -6.089844 5.371094 -5.363281 L 4.726562 -1.539062 C 4.375 0.527344 3.617188 1.25 5.992188 1.652344 L 7.855469 1.964844 C 12.402344 2.734375 16.402344 2.984375 19.96875 2.632812 L 20.058594 2.117188 C 20.300781 0.667969 20.648438 -0.761719 20.910156 -2.3125 C 21.050781 -3.136719 21.277344 -3.84375 21.398438 -4.566406 C 21.75 -6.636719 22.183594 -8.582031 22.535156 -10.648438 L 24.371094 -21.503906 C 24.5625 -22.640625 24.6875 -24 24.859375 -25.035156 L 25.386719 -28.136719 C 25.59375 -29.378906 25.925781 -30.703125 26.117188 -31.839844 C 26.101562 -31.738281 26.1875 -31.617188 26.1875 -31.617188 C 26.234375 -30.652344 26.421875 -29.238281 26.59375 -28.359375 L 26.828125 -26.617188 L 27.4375 -21.410156 C 27.640625 -20.097656 27.605469 -18.617188 27.808594 -17.308594 L 28.261719 -13.082031 L 28.449219 -11.03125 L 28.613281 -8.878906 L 29.101562 -4.222656 L 29.542969 0.105469 L 30.128906 6.050781 C 32.234375 6.195312 34.421875 6.460938 36.816406 6.757812 L 37.558594 5.5 L 40.070312 1.355469 L 42.164062 -2.226562 L 43.203125 -3.964844 L 45.242188 -7.234375 L 49.5 -14.171875 L 51.402344 -17.25 L 54.257812 -21.554688 L 56.105469 -24.324219 L 56.679688 -25.183594 L 56.972656 -25.664062 L 56.308594 -21.738281 C 56.253906 -21.425781 56.304688 -21.101562 56.253906 -20.789062 L 55.46875 -16.136719 C 55.273438 -15 55.203125 -13.949219 54.992188 -12.710938 L 54.136719 -7.644531 C 54.03125 -7.023438 54.011719 -6.28125 53.910156 -5.664062 C 53.558594 -3.59375 53.3125 -1.511719 52.980469 0.453125 L 52.628906 2.519531 C 52.4375 3.65625 52.316406 5.019531 52.121094 6.15625 L 51.773438 8.222656 C 51.648438 8.949219 51.632812 9.6875 51.507812 10.414062 L 51.019531 13.304688 C 50.511719 16.304688 50.210938 19.335938 49.6875 22.4375 C 53.753906 22.914062 57.527344 23.230469 60.957031 23.066406 L 61.132812 22.035156 C 61.308594 21 61.414062 19.742188 61.605469 18.605469 L 62.007812 16.226562 C 62.5 13.332031 62.886719 9.785156 63.410156 6.683594 L 63.777344 4.511719 C 63.988281 3.273438 64.09375 2.015625 64.304688 0.773438 L 64.566406 -0.777344 C 64.828125 -2.328125 64.96875 -3.792969 65.230469 -5.34375 L 65.878906 -9.167969 C 66.140625 -10.71875 66.300781 -12.285156 66.5625 -13.835938 L 66.824219 -15.386719 C 67.035156 -16.628906 67.140625 -17.886719 67.351562 -19.125 L 67.734375 -21.398438 C 67.855469 -22.125 67.875 -22.863281 67.996094 -23.589844 C 68.871094 -28.757812 69.453125 -34.082031 70.308594 -39.148438 C 70.433594 -39.871094 70.453125 -40.609375 70.554688 -41.230469 L 70.800781 -42.679688 C 71.273438 -45.46875 71.46875 -47.882812 71.558594 -49.035156 C 69.421875 -49.609375 67.476562 -50.046875 65.613281 -50.359375 Z M 65.613281 -50.359375 "/></g></g></g><g fill="#ffffff" fill-opacity="1"><g transform="translate(204.788922, 75.410203)"><g><path d="M 24.210938 -36.765625 C 19.699219 -28.242188 19.359375 -19.761719 25.296875 -12.824219 C 26.621094 -11.292969 28.222656 -9.613281 29.6875 -8.125 L 31.289062 -6.445312 C 31.839844 -5.917969 32.34375 -5.296875 32.84375 -4.675781 L 34.53125 -2.710938 C 36.039062 -0.847656 37.960938 1.121094 37.882812 4.398438 L 37.757812 5.757812 C 37.28125 8.230469 36.730469 9.71875 35.550781 11.945312 C 35.304688 12.40625 34.96875 12.820312 34.679688 13.140625 L 34.152344 13.691406 C 32.84375 15.492188 31.789062 16.359375 29.808594 16.96875 L 29.148438 17.09375 C 27.59375 17.339844 25.871094 16.78125 24.390625 15.996094 C 21.238281 14.328125 19.632812 12.886719 21.703125 6.507812 C 22.734375 2.546875 26.3125 -0.183594 21.589844 -2.6875 C 17.882812 -4.648438 13.804688 -6.808594 10.234375 -8.578125 C 8.382812 -9.558594 7.515625 -8.59375 5.996094 -5.722656 L 5.652344 -5.074219 C 5.308594 -4.425781 5.105469 -3.820312 4.90625 -3.214844 L 4.546875 -1.863281 C 4.1875 -0.511719 3.78125 0.699219 3.75 2.105469 L 3.625 3.460938 C 3.4375 9.414062 3.308594 13.019531 10.167969 18.433594 L 12.429688 19.988281 C 13.402344 20.621094 14.554688 21.347656 15.667969 21.9375 L 18.078125 23.214844 C 20.765625 24.636719 23.636719 26.15625 26.523438 26.976562 L 29.597656 27.890625 C 34.726562 29.183594 39.507812 29.339844 43.171875 27.128906 L 43.269531 26.941406 C 45.785156 25.546875 47.246094 23.238281 48.671875 20.550781 C 51.5625 15.082031 53.058594 9.351562 52.894531 4.28125 C 52.894531 -1.769531 49.082031 -5.09375 44.539062 -9.515625 C 43.074219 -11 41.515625 -12.539062 40.097656 -14.121094 L 36.859375 -18.085938 C 34.582031 -20.953125 33.761719 -23.882812 36.113281 -28.328125 L 37 -29.996094 C 38.863281 -33.515625 41.03125 -36.046875 44.4375 -35.308594 C 45.183594 -35.152344 45.832031 -34.808594 46.667969 -34.367188 C 48.890625 -33.191406 49.898438 -32.179688 50.519531 -30.667969 C 51.347656 -27.972656 49.582031 -24.636719 48.726562 -22.125 L 47.972656 -20.03125 C 46.875 -17.058594 47.03125 -17.804688 46.648438 -15.515625 C 49.636719 -12.867188 57.828125 -8.171875 61.078125 -8.707031 C 62.695312 -9.746094 65.699219 -15.867188 66.253906 -17.589844 C 66.855469 -19.171875 67.59375 -20.792969 67.867188 -22.429688 L 68.144531 -24.300781 C 68.679688 -31.132812 65.046875 -36.144531 53.835938 -42.078125 L 50.40625 -43.894531 C 49.574219 -44.335938 48.738281 -44.777344 47.855469 -45.125 L 44.652344 -46.46875 L 41.859375 -47.46875 L 39.621094 -47.945312 C 35.503906 -48.460938 32.09375 -46.945312 30.125 -45.023438 C 29.023438 -44.0625 26.519531 -41.121094 24.210938 -36.765625 Z M 24.210938 -36.765625 "/></g></g></g></svg>