<svg xmlns="http://www.w3.org/2000/svg" xmlns:xlink="http://www.w3.org/1999/xlink" width="500" zoomAndPan="magnify" viewBox="0 0 375 374.999991" height="500" preserveAspectRatio="xMidYMid meet" version="1.0"><defs><g/><clipPath id="7345b6b2b6"><path d="M 17 25 L 348 25 L 348 200 L 17 200 Z M 17 25 " clip-rule="nonzero"/></clipPath><clipPath id="b2fa55a4d7"><path d="M -7.65625 77.660156 L 239.859375 -66.625 L 361.105469 141.363281 L 113.589844 285.652344 Z M -7.65625 77.660156 " clip-rule="nonzero"/></clipPath><clipPath id="ff760770cd"><path d="M -7.65625 77.660156 L 239.859375 -66.625 L 361.105469 141.363281 L 113.589844 285.652344 Z M -7.65625 77.660156 " clip-rule="nonzero"/></clipPath><clipPath id="30a0c9b71d"><path d="M -7.65625 77.660156 L 239.859375 -66.625 L 361.105469 141.363281 L 113.589844 285.652344 Z M -7.65625 77.660156 " clip-rule="nonzero"/></clipPath><clipPath id="ad6d07aebb"><path d="M 24 33 L 310 33 L 310 182 L 24 182 Z M 24 33 " clip-rule="nonzero"/></clipPath><clipPath id="cd2aa59f6f"><path d="M -7.65625 77.660156 L 239.859375 -66.625 L 361.105469 141.363281 L 113.589844 285.652344 Z M -7.65625 77.660156 " clip-rule="nonzero"/></clipPath><clipPath id="cdf185d46a"><path d="M -7.65625 77.660156 L 239.859375 -66.625 L 361.105469 141.363281 L 113.589844 285.652344 Z M -7.65625 77.660156 " clip-rule="nonzero"/></clipPath><clipPath id="c60786e0c8"><path d="M -7.65625 77.660156 L 239.859375 -66.625 L 361.105469 141.363281 L 113.589844 285.652344 Z M -7.65625 77.660156 " clip-rule="nonzero"/></clipPath><clipPath id="99a42986e4"><path d="M 24 30 L 340 30 L 340 196 L 24 196 Z M 24 30 " clip-rule="nonzero"/></clipPath><clipPath id="3b8d245956"><path d="M -7.65625 77.660156 L 239.859375 -66.625 L 361.105469 141.363281 L 113.589844 285.652344 Z M -7.65625 77.660156 " clip-rule="nonzero"/></clipPath><clipPath id="ad92f89ccb"><path d="M -7.65625 77.660156 L 239.859375 -66.625 L 361.105469 141.363281 L 113.589844 285.652344 Z M -7.65625 77.660156 " clip-rule="nonzero"/></clipPath><clipPath id="23712d850f"><path d="M -7.65625 77.660156 L 239.859375 -66.625 L 361.105469 141.363281 L 113.589844 285.652344 Z M -7.65625 77.660156 " clip-rule="nonzero"/></clipPath><clipPath id="00fdf560b2"><path d="M 112 55 L 341 55 L 341 192 L 112 192 Z M 112 55 " clip-rule="nonzero"/></clipPath><clipPath id="c595c11050"><path d="M -7.65625 77.660156 L 239.859375 -66.625 L 361.105469 141.363281 L 113.589844 285.652344 Z M -7.65625 77.660156 " clip-rule="nonzero"/></clipPath><clipPath id="26c9cb4194"><path d="M -7.65625 77.660156 L 239.859375 -66.625 L 361.105469 141.363281 L 113.589844 285.652344 Z M -7.65625 77.660156 " clip-rule="nonzero"/></clipPath><clipPath id="bd8e1167db"><path d="M -7.65625 77.660156 L 239.859375 -66.625 L 361.105469 141.363281 L 113.589844 285.652344 Z M -7.65625 77.660156 " clip-rule="nonzero"/></clipPath></defs><g clip-path="url(#7345b6b2b6)"><g clip-path="url(#b2fa55a4d7)"><g clip-path="url(#ff760770cd)"><g clip-path="url(#30a0c9b71d)"><path fill="#090909" d="M 346.097656 118.371094 C 348.367188 124.308594 347.183594 129.878906 342.402344 135.964844 C 342.101562 136.472656 341.84375 136.820312 341.527344 137.070312 C 340.140625 138.210938 336.410156 141.902344 331.746094 146.601562 C 322.191406 156.0625 309.152344 169.078125 303.242188 173.113281 C 301.453125 174.355469 299.613281 175.625 297.707031 177 C 292.417969 180.742188 286.882812 184.628906 281.109375 187.996094 C 269.367188 194.839844 259.394531 197.6875 249.855469 196.976562 C 240.984375 196.273438 231.699219 195.089844 224.269531 190.84375 C 216.890625 186.695312 211.867188 179.660156 206.984375 172.875 C 206.5625 172.261719 206.136719 171.652344 205.667969 171.066406 C 197.363281 159.542969 189.707031 148.566406 182.402344 137.511719 C 179.6875 145.101562 175.742188 152.285156 171.96875 159.300781 L 171.558594 160.070312 C 170.210938 162.636719 168.765625 165.261719 167.449219 167.875 C 166.882812 169.0625 166.269531 170.277344 165.65625 171.492188 C 164.367188 174.160156 162.917969 177.117188 161.253906 179.933594 C 160.070312 182.207031 158.578125 184.527344 156.722656 187.128906 C 156.453125 187.683594 156.128906 188.265625 155.800781 188.722656 C 154.992188 190.511719 153.855469 192.296875 152.542969 193.789062 C 151.179688 195.308594 149.652344 196.660156 148.074219 197.578125 C 147.582031 197.867188 147.136719 198.125 146.714844 198.308594 C 142.507812 200.164062 138.078125 199.710938 134.71875 199.164062 C 132.070312 199.386719 128.992188 199.203125 125.496094 198.535156 C 116.453125 197.539062 107.277344 195.296875 98.390625 193.085938 L 94.230469 192.078125 C 84.042969 189.570312 73.496094 187.011719 63.550781 183.109375 C 57.511719 182.273438 51.449219 177.886719 48.152344 171.890625 L 48.125 171.839844 C 44.023438 166.050781 40.503906 159.789062 37.070312 153.671875 C 35.941406 151.625 34.765625 149.605469 33.636719 147.554688 C 31.339844 143.617188 28.871094 139.378906 25.855469 134.210938 C 25.195312 133.078125 24.429688 131.875 23.777344 130.867188 L 23.75 130.820312 C 22.273438 128.511719 20.765625 126.15625 19.683594 123.621094 C 18.109375 121.371094 17.242188 118.179688 17.453125 115.484375 C 17.582031 113.890625 18.273438 112.695312 18.964844 111.5 C 19.40625 110.78125 19.847656 110.0625 20.238281 109.375 L 20.585938 108.839844 C 20.769531 108.46875 20.976562 108.148438 21.1875 107.828125 C 21.230469 107.675781 21.269531 107.519531 21.285156 107.3125 C 21.457031 106.816406 21.765625 106.4375 22.160156 106.207031 L 22.210938 106.179688 L 22.257812 106.148438 L 22.449219 105.90625 C 22.566406 105.773438 22.636719 105.664062 22.707031 105.558594 C 26.769531 96.988281 31.921875 88.707031 36.863281 80.742188 L 37.835938 79.121094 C 38.625 77.867188 39.367188 76.644531 40.109375 75.421875 C 42.519531 71.507812 44.816406 67.394531 47.074219 63.441406 L 47.09375 63.363281 C 51.234375 56.066406 55.515625 48.554688 60.476562 41.640625 C 61.289062 38.722656 63.011719 36.464844 65.628906 34.941406 C 71.894531 31.289062 81.597656 32.625 86.890625 33.765625 C 95.503906 34.484375 104.039062 36.304688 112.238281 38.125 L 112.394531 38.164062 C 113.976562 38.496094 115.507812 38.859375 117.089844 39.191406 C 125.335938 40.980469 133.667969 42.457031 142.234375 43.996094 C 142.988281 44.152344 143.738281 44.308594 144.519531 44.515625 L 144.644531 44.503906 C 145.007812 44.558594 145.339844 44.5625 145.703125 44.617188 L 146.035156 44.621094 L 146.320312 44.652344 C 146.652344 44.65625 147.011719 44.710938 147.347656 44.714844 L 147.472656 44.707031 C 149.691406 44.203125 152.859375 45.328125 154.503906 46.21875 C 156.144531 47.105469 157.292969 48.285156 157.980469 49.800781 C 158.890625 50.457031 159.550781 51.589844 160.011719 52.375 L 160.039062 52.425781 C 160.183594 52.671875 160.269531 52.820312 160.355469 52.96875 L 160.632812 53.332031 C 161.738281 55 163.003906 56.832031 163.976562 58.839844 C 166.460938 62.539062 168.5625 66.59375 170.652344 70.523438 L 170.796875 70.769531 C 172.191406 73.386719 173.414062 75.710938 174.707031 77.925781 C 175.050781 78.515625 175.367188 79.058594 175.738281 79.699219 C 179.792969 75.882812 184.011719 72.566406 187.394531 69.867188 L 187.492188 69.8125 C 188.296875 69.144531 189.078125 68.558594 189.757812 68.027344 C 198.667969 60.855469 209.234375 52.453125 219.90625 44.449219 C 225.84375 40 231.121094 36.128906 236.09375 32.636719 C 236.410156 32.386719 236.753906 32.1875 237.070312 31.933594 C 238.417969 30.953125 239.890625 29.964844 241.371094 29.101562 C 244.378906 27.347656 246.992188 26.613281 249.585938 26.753906 C 249.792969 26.765625 249.996094 26.777344 250.179688 26.867188 C 257.730469 24.050781 265.628906 27.167969 272.003906 29.71875 C 276.386719 31.453125 280.871094 33.589844 285.402344 36.03125 C 286.0625 36.371094 286.753906 36.761719 287.464844 37.070312 C 290.527344 38.585938 293.648438 40.195312 295.710938 42.824219 C 301.273438 47.039062 305.03125 53.03125 308.644531 58.777344 C 309.324219 59.832031 309.976562 60.835938 310.65625 61.890625 C 316.441406 70.792969 322.65625 80.433594 328.851562 90.152344 C 330.5 92.753906 332.328125 95.320312 334.21875 98.109375 C 338.695312 104.539062 343.421875 111.289062 346.097656 118.371094 Z M 346.097656 118.371094 " fill-opacity="1" fill-rule="nonzero"/></g></g></g></g><g clip-path="url(#ad6d07aebb)"><g clip-path="url(#cd2aa59f6f)"><g clip-path="url(#cdf185d46a)"><g clip-path="url(#c60786e0c8)"><path fill="#ffffff" d="M 143.753906 57.828125 C 144.386719 57.328125 144.773438 56.96875 145.1875 56.660156 C 145.304688 56.859375 145.546875 57.046875 145.710938 57.214844 C 146.039062 56.757812 146.289062 56.285156 146.617188 55.828125 L 146.667969 55.796875 L 146.6875 55.71875 C 146.820312 55.378906 146.972656 54.960938 147.125 54.542969 C 146.835938 54.382812 146.542969 54.222656 146.144531 53.992188 C 146.6875 53.675781 147.074219 53.320312 147.417969 53.117188 C 147.441406 53.039062 147.382812 52.941406 147.402344 52.863281 C 147.542969 51.066406 145.609375 48.761719 128.765625 46.636719 C 127.425781 46.492188 126.265625 46.3125 125.589844 46.175781 C 120.101562 45.152344 114.5 43.933594 109.570312 42.847656 L 108.113281 42.507812 C 107.570312 42.363281 107 42.296875 106.457031 42.15625 C 106.457031 42.15625 106.457031 42.15625 106.378906 42.132812 C 96.417969 40.019531 85.828125 38.410156 74.144531 37.300781 L 74.066406 37.28125 L 74.015625 37.308594 C 71.710938 37.664062 69.78125 38.324219 68.054688 39.332031 C 66.425781 40.28125 65.050781 41.546875 63.894531 43.078125 L 63.84375 43.105469 L 63.792969 43.136719 C 60.507812 49.40625 56.675781 55.535156 52.957031 61.398438 L 52.835938 61.535156 C 49.816406 66.332031 46.375 71.769531 43.394531 77.199219 C 41.558594 80.515625 39.777344 83.925781 37.949219 87.367188 C 34.113281 94.621094 29.824219 102.796875 24.996094 110.164062 L 24.785156 110.484375 L 24.957031 110.78125 C 25.417969 111.566406 26.160156 112.386719 27.023438 113.074219 L 27.1875 113.242188 L 27.390625 113.253906 C 30.328125 113.191406 33.269531 113.589844 35.851562 113.933594 L 36.261719 113.957031 C 37.191406 114.074219 38.070312 114.222656 38.96875 114.292969 C 44.121094 114.851562 49.476562 115.757812 55.363281 117.007812 L 55.410156 116.980469 L 55.460938 116.953125 C 66.101562 117.742188 76.691406 120.148438 86.011719 123.886719 L 86.089844 123.910156 L 86.167969 123.929688 C 88.082031 124.265625 90.054688 124.699219 92.347656 125.34375 L 92.425781 125.363281 C 92.582031 125.402344 92.738281 125.445312 92.84375 125.515625 L 93.183594 125.644531 L 93.574219 125.75 C 94.015625 125.820312 94.484375 125.945312 94.972656 125.988281 C 97.792969 126.523438 101.089844 126.84375 103.875 125.617188 C 103.875 125.617188 104.023438 125.53125 104.023438 125.53125 L 104.074219 125.5 C 105.402344 124.265625 106.5 122.632812 107.578125 121.082031 L 108.140625 120.226562 C 108.488281 119.695312 108.867188 119.210938 109.246094 118.722656 L 109.296875 118.695312 L 109.316406 118.617188 C 112.089844 111.921875 115.90625 105.539062 119.785156 99.382812 C 119.4375 99.125 119 98.71875 118.246094 98.101562 C 119.367188 97.644531 120.078125 97.164062 120.816406 97.066406 C 120.941406 97.058594 121.050781 97.128906 121.105469 97.226562 C 121.828125 96.082031 122.527344 95.011719 123.246094 93.867188 L 123.878906 92.90625 C 125.207031 90.878906 126.578125 88.691406 127.828125 86.644531 C 131.378906 80.945312 135.066406 74.902344 139.042969 68.230469 C 139.800781 66.929688 140.5625 65.625 141.316406 64.195312 L 141.570312 63.71875 C 142.460938 62.078125 143.425781 60.328125 144.46875 58.601562 C 144.488281 58.523438 144.1875 58.234375 143.753906 57.828125 Z M 63.578125 56.261719 C 63.761719 55.890625 63.96875 55.570312 64.199219 55.171875 C 62.746094 52.789062 63.105469 50.003906 64.46875 47.691406 C 64.09375 47.050781 63.671875 46.441406 63.445312 45.714844 C 63.378906 45.488281 64.121094 45.058594 64.507812 44.699219 C 64.894531 45.136719 65.25 45.519531 65.695312 46.054688 C 66.695312 44.941406 67.992188 43.988281 69.363281 43.386719 C 70.617188 42.589844 72.121094 42.109375 73.648438 42.011719 C 77.792969 41.179688 82.140625 42.40625 83.273438 46.496094 C 84.210938 50.039062 82.152344 53.417969 79.109375 55.457031 C 75.601562 59.085938 69.261719 60.339844 65.445312 56.625 C 65.148438 56.796875 64.851562 56.972656 64.527344 57.09375 C 64.359375 57.257812 63.507812 56.367188 63.578125 56.261719 Z M 90.347656 82.558594 C 90.390625 82.863281 89.847656 83.179688 89.539062 83.558594 C 89.183594 83.171875 88.648438 82.824219 88.46875 82.402344 C 88.402344 82.175781 88.859375 81.710938 89.300781 80.992188 C 89.78125 81.703125 90.265625 82.082031 90.347656 82.558594 Z M 81.921875 91.695312 C 81.28125 92.070312 80.589844 92.472656 79.917969 92.796875 C 79.769531 92.882812 79.519531 92.566406 78.964844 92.296875 C 79.902344 91.75 80.59375 91.347656 81.265625 91.023438 C 81.363281 90.964844 81.699219 91.429688 81.921875 91.695312 Z M 52.726562 105.347656 C 48.886719 109.304688 41.203125 112 36.660156 107.71875 C 35.191406 106.332031 34.492188 104.230469 34.589844 102.128906 C 34.4375 100.964844 34.484375 99.683594 34.886719 98.328125 C 36.644531 92.15625 45.3125 88.882812 50.894531 91.765625 C 56.164062 94.570312 56.757812 101.148438 52.726562 105.347656 Z M 57.84375 102.101562 C 57.484375 101.714844 57.683594 100.808594 57.644531 100.171875 C 58.207031 101.363281 58.738281 102.503906 58.773438 102.679688 C 59.300781 102.902344 58.363281 102.65625 57.84375 102.101562 Z M 60.363281 85.785156 C 54.253906 87.894531 46.917969 84.382812 47.691406 77.203125 C 47.914062 75.09375 48.988281 73.082031 50.519531 71.394531 C 50.570312 71.367188 50.570312 71.367188 50.589844 71.289062 C 53.847656 67.804688 59.066406 65.753906 63.246094 67.144531 C 67.847656 68.6875 70 73.964844 68.011719 77.699219 C 67.886719 78.167969 67.683594 78.613281 67.40625 79.039062 C 67.382812 79.117188 67.285156 79.175781 67.265625 79.253906 C 65.980469 82.378906 63.492188 84.6875 60.363281 85.785156 Z M 109.070312 106.289062 C 110.871094 112.101562 106.058594 116.886719 101.441406 119.511719 C 96.675781 122.222656 90.964844 121.726562 88.246094 116.382812 C 85.671875 111.285156 91.019531 106.847656 94.800781 104.378906 C 95.195312 104.148438 95.628906 104.09375 95.988281 104.148438 C 96.40625 103.839844 96.898438 103.550781 97.292969 103.324219 C 101.628906 101.125 107.324219 100.574219 109.070312 106.289062 Z M 101.054688 93.671875 C 100.90625 93.757812 100.386719 93.207031 99.6875 92.6875 C 100.527344 92.199219 101.039062 91.832031 101.570312 91.722656 C 101.796875 91.65625 102.140625 92.246094 102.441406 92.535156 C 102.003906 92.921875 101.578125 93.433594 101.054688 93.671875 Z M 87.179688 61.707031 C 88.523438 62.308594 89.789062 62.890625 91.128906 63.496094 C 90.695312 63.878906 90.179688 64.246094 89.429688 64.882812 C 88.464844 63.796875 87.613281 62.90625 86.765625 62.015625 C 86.960938 61.898438 87.152344 61.65625 87.179688 61.707031 Z M 97.84375 80.566406 C 97.757812 80.417969 98.523438 79.574219 98.707031 79.667969 C 99.621094 79.988281 100.496094 80.46875 101.394531 80.871094 C 100.703125 81.273438 100.089844 81.699219 99.054688 82.300781 C 98.601562 81.640625 98.058594 81.164062 97.84375 80.566406 Z M 117.117188 100.476562 C 116.707031 100.453125 116.273438 100.046875 115.425781 99.613281 C 116.292969 99.175781 116.730469 98.789062 117.140625 98.8125 C 117.5 98.867188 117.816406 99.410156 118.144531 99.746094 C 117.828125 99.996094 117.5 100.453125 117.117188 100.476562 Z M 121.59375 85.132812 C 119.144531 90.121094 113.066406 93.863281 107.433594 92.59375 C 100.816406 91.105469 101.101562 83.546875 105.546875 79.835938 C 107.617188 76.582031 111.457031 74.210938 115.214844 73.738281 C 122.042969 72.859375 124.199219 79.851562 121.59375 85.132812 Z M 133.007812 63.894531 C 132.792969 64.085938 132.574219 64.277344 132.277344 64.453125 C 130.144531 67.144531 126.925781 69.21875 123.472656 69.191406 C 119.300781 69.179688 115.945312 65.921875 115.382812 61.894531 C 115.171875 60.167969 115.507812 58.589844 116.308594 57.132812 C 116.089844 57.324219 115.84375 57.46875 115.597656 57.613281 C 115.449219 57.699219 115.035156 57.214844 114.335938 56.695312 C 115.203125 56.257812 115.71875 55.890625 116.25 55.78125 C 116.375 55.773438 116.597656 56.039062 116.820312 56.304688 C 118.976562 53.199219 123.195312 51.136719 127.101562 51.039062 C 127.660156 50.976562 128.21875 50.914062 128.730469 50.878906 C 130.140625 50.917969 131.355469 51.527344 132.300781 52.359375 C 132.621094 52.570312 132.914062 52.730469 133.183594 52.96875 C 136.515625 55.84375 135.976562 61.042969 133.007812 63.894531 Z M 300.40625 97.828125 C 296.828125 93.050781 292.363281 87.207031 290.4375 83.90625 L 290.410156 83.855469 L 290.382812 83.808594 C 280.890625 71.722656 270.800781 58.269531 269.515625 56.179688 C 267.875 53.703125 266.386719 51.601562 264.90625 49.628906 C 263.980469 48.386719 263.085938 47.191406 262.113281 45.976562 C 260.890625 44.445312 259.6875 42.835938 258.566406 41.25 C 258.285156 40.882812 257.976562 40.46875 257.613281 39.957031 C 256.238281 38.050781 254.210938 35.140625 252.027344 33.777344 C 249.949219 32.480469 247.53125 33.097656 246.417969 33.679688 L 246.367188 33.707031 L 246.320312 33.738281 C 244.039062 35.265625 241.675781 36.773438 239.445312 38.273438 C 235.21875 41 230.871094 43.863281 226.738281 46.867188 C 220.3125 51.605469 213.851562 56.625 207.65625 61.421875 C 205.875 62.789062 204.195312 64.101562 202.464844 65.441406 L 201.046875 66.527344 C 193.460938 72.335938 185.605469 78.367188 178.507812 85.015625 C 178.410156 85.070312 178.339844 85.179688 178.21875 85.3125 C 177.714844 85.808594 177.226562 86.222656 176.722656 86.714844 C 176.335938 87.070312 175.996094 87.402344 175.640625 87.808594 C 175.421875 88 175.28125 88.214844 175.0625 88.40625 C 168.371094 95.410156 163.839844 103.398438 170.589844 111.800781 C 170.839844 112.117188 170.960938 112.441406 170.957031 112.773438 L 170.945312 112.980469 L 171.03125 113.128906 C 171.367188 113.589844 171.753906 114.027344 172.089844 114.492188 C 174.34375 117.335938 176.597656 120.179688 178.820312 122.972656 C 179.792969 124.1875 180.746094 125.480469 181.71875 126.695312 C 181.910156 126.914062 182.054688 127.160156 182.273438 127.425781 C 182.640625 127.9375 183.054688 128.421875 183.417969 128.9375 C 183.890625 129.519531 184.3125 130.128906 184.785156 130.714844 C 192.292969 140.527344 199.320312 150.089844 206.023438 159.773438 C 207.234375 161.511719 208.453125 163.375 209.640625 165.1875 C 213.460938 170.945312 217.367188 176.851562 222.316406 181.488281 L 222.558594 181.675781 L 222.882812 181.554688 C 229.667969 179.578125 236.34375 177.535156 242.707031 173.824219 C 243.003906 173.652344 243.347656 173.453125 243.644531 173.277344 C 249.726562 169.535156 283.328125 144.734375 299.875 127.761719 C 299.175781 127.246094 298.644531 126.898438 298.128906 126.472656 C 299.316406 125.78125 300.375 124.765625 301.613281 124.507812 C 301.917969 124.460938 302.308594 124.5625 302.65625 124.824219 C 306.671875 120.371094 309.148438 116.683594 309.132812 114.382812 L 309.152344 114.304688 L 309.125 114.257812 C 308.359375 111.46875 307.371094 108.414062 305.445312 105.117188 C 304.984375 103.867188 302.886719 101.0625 300.40625 97.828125 Z M 239.234375 40.179688 C 239.5625 39.722656 240.078125 39.355469 240.511719 38.96875 C 240.792969 39.335938 241.355469 39.734375 241.242188 39.996094 C 241.117188 40.464844 240.652344 40.800781 240.136719 41.5 C 239.683594 40.839844 239.164062 40.285156 239.234375 40.179688 Z M 204.882812 89.433594 C 205.53125 89.980469 205.964844 90.386719 206.402344 90.792969 C 205.449219 91.085938 204.503906 91.503906 203.570312 91.71875 C 203.390625 91.753906 203.078125 91.214844 202.804688 90.976562 C 203.4375 90.476562 204.101562 90.023438 204.882812 89.433594 Z M 196.070312 117.867188 C 194.152344 117.863281 192.398438 117.234375 190.847656 116.160156 C 190.207031 115.742188 189.636719 115.21875 189.113281 114.664062 C 188.5625 114.058594 188.035156 113.378906 187.605469 112.640625 C 187.289062 112.097656 186.992188 111.476562 186.777344 110.878906 C 186.625 110.503906 186.523438 110.101562 186.417969 109.699219 C 186.273438 108.996094 186.175781 108.261719 186.175781 107.46875 C 186.109375 107.242188 186.121094 107.035156 186.085938 106.859375 C 186.023438 106.300781 185.964844 105.742188 185.980469 105.207031 C 185.960938 104.492188 186.066406 103.769531 186.175781 103.046875 C 186.351562 102.214844 186.628906 101.328125 187.089844 100.53125 C 187.503906 99.765625 187.972656 99.09375 188.644531 98.4375 C 192.25 94.753906 197.789062 94.957031 201.773438 97.714844 C 204.679688 98.726562 207.128906 101.457031 207.933594 104.417969 C 209.433594 109.945312 206.484375 115.886719 200.910156 117.550781 C 199.328125 118.011719 197.800781 118.113281 196.355469 117.898438 C 196.277344 117.878906 196.199219 117.859375 196.070312 117.867188 Z M 244.144531 151.34375 C 244.144531 152.136719 244.066406 152.90625 243.9375 153.707031 C 243.878906 155.652344 243.394531 157.652344 242.402344 159.355469 C 239.324219 164.84375 232.488281 166.386719 227.042969 163.621094 C 223.628906 161.851562 220.855469 158.453125 219.976562 154.675781 C 218.867188 149.714844 220.984375 145.179688 225.019531 142.234375 C 228.320312 139.847656 232.960938 139.1875 236.738281 140.679688 C 241.148438 142.464844 244.023438 146.597656 244.144531 151.34375 Z M 214.109375 94.152344 C 213.777344 94.941406 213.363281 95.707031 212.953125 96.476562 C 212.566406 96.042969 212.261719 95.628906 211.625 94.875 C 212.375 94.238281 212.910156 93.796875 213.523438 93.371094 C 213.523438 93.371094 214.199219 93.96875 214.109375 94.152344 Z M 247.621094 108.207031 C 249.125 113.730469 246.175781 119.671875 240.601562 121.339844 C 239.019531 121.800781 237.488281 121.898438 236.042969 121.683594 C 235.964844 121.664062 235.867188 121.722656 235.789062 121.703125 C 231.128906 121.648438 227.234375 117.914062 226.214844 113.558594 C 226.070312 112.851562 225.96875 112.117188 225.972656 111.324219 C 225.359375 108.117188 225.941406 104.808594 228.363281 102.273438 C 231.96875 98.589844 237.507812 98.792969 241.492188 101.550781 C 244.367188 102.511719 246.820312 105.242188 247.621094 108.207031 Z M 233.730469 68.726562 C 233.582031 68.019531 233.484375 67.285156 233.484375 66.492188 C 232.871094 63.285156 233.457031 59.976562 235.878906 57.441406 C 239.480469 53.757812 245.019531 53.960938 249.007812 56.71875 C 251.910156 57.730469 254.363281 60.460938 255.164062 63.421875 C 256.664062 68.949219 253.71875 74.890625 248.144531 76.554688 C 246.5625 77.015625 245.03125 77.117188 243.585938 76.902344 C 243.507812 76.882812 243.410156 76.941406 243.332031 76.921875 C 238.59375 76.84375 234.699219 73.109375 233.730469 68.726562 Z M 275.140625 125.023438 C 270.195312 123.683594 266.960938 119.5 265.863281 114.664062 C 264.527344 108.972656 267.136719 103.691406 272.714844 101.695312 C 274.515625 101.042969 276.628906 100.929688 278.644531 101.207031 C 281.652344 101.039062 284.703125 101.964844 287.109375 104.390625 C 288.992188 106.261719 290.203125 108.789062 290.675781 111.417969 C 290.683594 111.542969 290.742188 111.640625 290.722656 111.71875 C 291.199219 114.808594 290.585938 118.066406 288.703125 120.617188 C 285.582031 124.679688 280.089844 126.363281 275.140625 125.023438 Z M 294.148438 123.382812 C 293.871094 123.476562 293.410156 123.019531 292.503906 122.492188 C 294.128906 121.875 295.171875 121.398438 296.253906 121.097656 C 296.480469 121.03125 296.875 121.59375 297.175781 121.882812 C 296.160156 122.40625 295.222656 122.953125 294.148438 123.382812 Z M 295.847656 117.902344 C 295.914062 118.128906 295.347656 118.523438 294.949219 119.085938 C 294.476562 118.503906 293.914062 118.105469 293.921875 117.773438 C 293.972656 117.414062 294.488281 117.046875 294.824219 116.71875 C 295.183594 117.105469 295.636719 117.433594 295.847656 117.902344 Z M 295.847656 117.902344 " fill-opacity="1" fill-rule="nonzero"/></g></g></g></g><g clip-path="url(#99a42986e4)"><g clip-path="url(#3b8d245956)"><g clip-path="url(#ad92f89ccb)"><g clip-path="url(#23712d850f)"><path fill="#1bbbf4" d="M 118.238281 154 C 114.769531 148.5 111.183594 142.800781 108.453125 136.871094 L 108.367188 136.722656 L 108.183594 136.632812 C 103.917969 134.304688 99.660156 132.558594 95.988281 131.136719 L 95.832031 131.097656 C 91.132812 130.40625 86.78125 128.71875 83.957031 127.394531 L 83.800781 127.355469 C 74.566406 126.140625 65.039062 123.972656 55.476562 120.835938 L 55.398438 120.816406 L 55.320312 120.792969 C 49.566406 119.992188 43.875 119.417969 38.425781 119.03125 C 36.703125 118.910156 34.941406 118.949219 33.226562 118.957031 L 33.199219 118.910156 C 31.359375 118.925781 29.519531 118.945312 27.667969 118.832031 L 27.464844 118.820312 L 27.265625 118.9375 C 25.773438 120.003906 24.917969 121.03125 24.453125 122.160156 L 24.339844 122.421875 L 24.484375 122.667969 C 25.753906 124.503906 26.859375 126.628906 27.792969 128.460938 C 28.347656 129.523438 29.015625 130.785156 29.675781 131.917969 C 32.347656 136.496094 34.902344 140.878906 37.457031 145.265625 C 38.289062 146.691406 39.171875 148.089844 40.003906 149.519531 L 41.085938 151.265625 C 44.460938 156.820312 47.917969 162.527344 50.796875 168.371094 L 50.824219 168.421875 L 50.851562 168.46875 C 52.910156 171.429688 54.886719 173.574219 57.117188 175.246094 C 58.890625 176.585938 60.835938 177.429688 62.414062 178.09375 L 62.441406 178.144531 L 62.519531 178.164062 C 68.726562 179.628906 75.039062 181.492188 80.617188 183.125 L 81.082031 183.246094 C 85.882812 184.671875 90.808594 186.089844 95.617188 187.3125 C 100.503906 188.554688 105.691406 189.625 110.277344 190.578125 C 116.449219 191.863281 122.746094 193.140625 128.84375 194.867188 L 128.921875 194.886719 L 129.203125 194.921875 C 129.695312 194.964844 130.105469 194.988281 130.515625 195.015625 C 130.847656 195.019531 131.257812 195.042969 131.699219 195.117188 C 133.578125 195.277344 135.476562 195.355469 136.46875 194.910156 C 136.617188 194.824219 136.765625 194.734375 136.863281 194.679688 C 138.640625 193.644531 138.484375 192.019531 138.105469 189.664062 C 138.054688 189.234375 137.972656 188.753906 137.890625 188.273438 C 137.890625 188.273438 137.863281 188.222656 137.882812 188.144531 L 137.902344 188.070312 C 137.902344 188.070312 137.808594 187.792969 137.78125 187.746094 L 137.75 187.695312 L 137.722656 187.644531 C 135.992188 185.355469 134.605469 182.863281 133.324219 180.441406 C 129.648438 173.679688 126.894531 168.617188 124.332031 164.105469 C 122.515625 160.878906 120.464844 157.585938 118.449219 154.46875 Z M 49.039062 136.664062 C 48.992188 137.152344 48.867188 137.621094 48.589844 138.050781 C 47.46875 139.757812 44.828125 139.648438 43.152344 139.042969 C 42.964844 138.949219 42.78125 138.859375 42.546875 138.800781 C 42.3125 138.738281 42.15625 138.695312 41.972656 138.605469 C 38.074219 137.25 30.359375 131.386719 33.117188 126.480469 C 36.359375 120.699219 43.609375 125.3125 46.179688 129.15625 C 46.210938 129.207031 46.210938 129.207031 46.238281 129.257812 C 46.652344 129.742188 47.074219 130.351562 47.476562 131.042969 C 48.960938 133.015625 49.78125 135.109375 49.039062 136.664062 Z M 77.554688 165.96875 C 77.855469 166.257812 78.125 166.496094 78.445312 166.703125 C 78.125 166.496094 77.828125 166.207031 77.554688 165.96875 Z M 89.3125 163.339844 C 90.542969 167.042969 88.742188 171.324219 84.234375 170.390625 C 83.167969 170.152344 81.332031 169.046875 79.367188 167.488281 C 79.523438 167.527344 79.679688 167.570312 79.785156 167.640625 C 80.132812 166.644531 80.355469 166.121094 80.546875 165.542969 C 79.507812 165.6875 78.488281 165.753906 77.449219 165.898438 C 73.8125 162.609375 70.363281 158.28125 71.320312 155.613281 C 71.371094 154.792969 71.707031 154.003906 72.585938 153.359375 C 75.710938 151.007812 80.667969 154.519531 83.046875 156.566406 C 85.898438 157.9375 88.351562 160.335938 89.3125 163.339844 Z M 128.417969 182.117188 C 128.679688 183.019531 128.65625 183.890625 128.402344 184.699219 C 128.179688 186.015625 127.359375 187.21875 125.714844 187.914062 C 122.78125 189.230469 119.761719 187.226562 117.332031 185.210938 C 115.105469 184.003906 113.152344 182.238281 112.054688 180.238281 C 111.792969 179.796875 111.691406 179.394531 111.589844 178.992188 C 111.589844 178.992188 111.5625 178.941406 111.5625 178.941406 C 111.523438 178.765625 111.457031 178.539062 111.5 178.382812 C 110.707031 175.546875 112.226562 172.484375 115.632812 172.542969 C 118.628906 172.578125 121.765625 174.445312 124.175781 176.539062 C 126.191406 178.070312 127.800781 180.035156 128.417969 182.117188 Z M 335.714844 112.8125 L 335.148438 111.953125 L 335.035156 111.757812 C 334.738281 111.136719 333.210938 108.859375 331.589844 106.304688 C 332.464844 111.207031 323.871094 104.40625 320.886719 97.699219 C 317.25 89.523438 320.726562 91.523438 324.445312 95.292969 L 324.160156 94.800781 L 324.101562 94.703125 C 324.042969 94.605469 323.984375 94.507812 323.929688 94.40625 C 323.84375 94.261719 323.785156 94.160156 323.679688 94.089844 C 321.636719 90.925781 319.363281 87.367188 316.917969 83.515625 C 316.730469 83.757812 316.441406 84.058594 316.152344 84.355469 C 315.566406 83.578125 315.230469 83.113281 314.894531 82.648438 C 315.210938 82.398438 315.574219 82.121094 315.890625 81.871094 C 312.507812 76.515625 308.816406 70.75 305.171875 64.957031 C 304.003906 63.0625 302.882812 61.144531 301.679688 59.074219 C 300.042969 56.265625 298.398438 53.332031 296.5625 50.640625 C 295.296875 48.804688 293.464844 47.367188 291.226562 46.359375 C 290.019531 45.875 288.921875 45.128906 287.726562 44.441406 C 287.195312 44.09375 286.660156 43.742188 286.078125 43.421875 C 282.621094 41.347656 279.070312 39.457031 275.589844 37.792969 C 274.769531 37.410156 273.925781 36.980469 273.078125 36.550781 C 268.535156 34.3125 263.382812 31.710938 258.253906 30.738281 L 257.0625 30.507812 L 257.617188 31.574219 C 258.316406 32.882812 258.984375 34.140625 259.652344 35.402344 C 260.789062 37.578125 261.921875 39.753906 263.160156 41.871094 C 265.054688 45.121094 267.074219 48.363281 268.734375 51.09375 C 270.191406 53.144531 271.554688 55.253906 272.800781 57.167969 C 274.386719 59.542969 279.179688 65.722656 284.773438 72.824219 C 286.804688 75.402344 288.890625 78.078125 290.980469 80.753906 L 291.039062 80.851562 L 291.144531 80.921875 C 291.171875 80.96875 291.25 80.988281 291.25 80.988281 C 293.136719 82.863281 306.101562 98.070312 307.835938 100.820312 L 307.863281 100.867188 L 307.890625 100.917969 C 308.734375 101.679688 309.476562 102.503906 310.21875 103.324219 C 311.183594 104.410156 312.226562 105.519531 313.359375 106.441406 C 314.820312 107.703125 316.394531 108.699219 317.964844 109.695312 C 319.433594 110.621094 320.925781 111.597656 322.222656 112.691406 C 322.253906 112.738281 322.332031 112.761719 322.359375 112.808594 L 322.445312 112.957031 C 322.445312 112.957031 323.652344 113.441406 324.179688 113.660156 C 324.414062 113.722656 324.597656 113.8125 324.859375 113.925781 C 324.910156 113.894531 324.960938 113.867188 325.039062 113.886719 C 325.214844 113.851562 325.457031 114.039062 325.648438 114.257812 C 326.410156 114.539062 327.199219 114.871094 327.957031 115.15625 C 328.902344 115.527344 329.898438 115.871094 330.8125 116.195312 L 330.890625 116.214844 L 330.96875 116.238281 C 331.125 116.277344 331.253906 116.269531 331.386719 116.390625 C 331.417969 116.4375 331.496094 116.457031 331.496094 116.457031 L 331.523438 116.507812 L 331.628906 116.578125 C 333.597656 117.34375 335.933594 118.292969 338.1875 119.550781 C 338.265625 119.570312 338.296875 119.621094 338.296875 119.621094 L 339.148438 118.925781 C 338.449219 116.824219 337.066406 114.792969 335.714844 112.8125 Z M 285.90625 59.691406 C 286.582031 65.5 279.71875 60.527344 278.125 58.816406 C 275.953125 56.449219 274.238281 53.625 272.730469 50.808594 C 271.777344 49.054688 270.238281 46.191406 270.949219 44.125 C 271.574219 42.242188 272.84375 42.492188 274.238281 43.527344 C 274.484375 43.382812 274.867188 43.359375 275.136719 43.597656 C 277.988281 45.761719 280.035156 48.59375 281.835938 51.570312 C 283.3125 53.878906 285.601562 56.898438 285.90625 59.691406 Z M 317.402344 97.15625 C 323.410156 109.621094 309.636719 101.417969 306.007812 92.582031 C 302.136719 83.222656 306.679688 85.457031 311.246094 89.660156 C 310.917969 90.574219 310.566406 91.441406 310.238281 92.355469 C 311.328125 92.183594 312.367188 92.039062 313.457031 91.867188 C 315.191406 93.824219 316.753906 95.820312 317.402344 97.15625 Z M 311.222656 89.738281 C 311.550781 90.074219 311.929688 90.382812 312.289062 90.765625 C 311.929688 90.382812 311.601562 90.046875 311.222656 89.738281 Z M 300.089844 65.875 C 298.015625 68.667969 294.695312 64.332031 293.472656 62.800781 C 290.863281 59.570312 287.757812 55.378906 287.636719 51.09375 C 287.644531 50.757812 287.910156 50.539062 288.242188 50.542969 C 292.0625 49.832031 295.363281 53.914062 297.453125 56.589844 C 298.992188 58.660156 302.113281 63.109375 300.089844 65.875 Z M 49.925781 72.535156 C 49.917969 72.40625 49.910156 72.277344 49.933594 72.203125 C 50.121094 71.957031 50.359375 71.6875 50.550781 71.445312 C 50.597656 71.417969 50.597656 71.417969 50.621094 71.339844 C 50.808594 71.097656 51.074219 70.875 51.3125 70.601562 C 51.527344 70.742188 51.664062 70.863281 51.671875 70.988281 C 51.632812 71.605469 51.136719 72.226562 50.738281 72.789062 C 50.589844 72.875 49.9375 72.660156 49.925781 72.535156 Z M 126.535156 59.816406 C 126.152344 60.632812 125.796875 61.5 125.292969 62.453125 C 124.570312 62.34375 124.082031 62.300781 123.644531 62.226562 C 123.949219 61.390625 124.066406 60.460938 124.613281 59.8125 C 124.875 59.464844 125.867188 59.808594 126.535156 59.816406 Z M 122.480469 182.476562 C 122.328125 182.894531 122.261719 183.460938 121.964844 183.632812 C 121.617188 183.835938 121.023438 183.71875 120.054688 183.757812 C 120.5625 182.933594 120.757812 182.359375 121.132812 182.207031 C 121.503906 182.054688 122.011719 182.351562 122.480469 182.476562 Z M 125.109375 179.160156 C 124.921875 179.863281 124.765625 180.613281 124.472656 181.246094 C 124.402344 181.355469 123.699219 181.167969 121.921875 180.953125 C 122.648438 179.933594 123.011719 179.195312 123.597656 178.722656 C 123.84375 178.578125 124.5625 179.019531 125.109375 179.160156 Z M 283.710938 107.292969 C 282.980469 107.058594 282.335938 106.972656 282.164062 106.679688 C 281.992188 106.382812 282.285156 105.75 282.40625 105.28125 C 282.90625 105.453125 283.519531 105.492188 283.898438 105.800781 C 284.0625 105.96875 283.769531 106.597656 283.710938 107.292969 Z M 287.09375 108.554688 C 286.511719 109.488281 285.960938 110.46875 285.300781 111.382812 C 285.160156 111.59375 284.488281 111.460938 283.441406 111.476562 C 284.476562 110.082031 285.136719 109.167969 285.902344 108.328125 C 286.039062 108.113281 286.703125 108.453125 287.09375 108.554688 Z M 269.214844 109.410156 C 269.746094 109.757812 270.328125 110.078125 271.796875 111.007812 C 271.507812 111.304688 271.136719 111.917969 270.636719 112.078125 C 270.359375 112.171875 269.542969 111.792969 269.421875 111.46875 C 269.203125 110.867188 269.28125 110.097656 269.214844 109.410156 Z M 290.648438 111.367188 C 290.65625 111.492188 290.714844 111.59375 290.691406 111.671875 C 290.691406 111.671875 290.722656 111.71875 290.671875 111.75 C 290.59375 111.726562 290.515625 111.707031 290.386719 111.714844 C 290.535156 111.628906 290.578125 111.472656 290.648438 111.367188 Z M 308.261719 87.375 C 308.1875 87.8125 308.140625 88.300781 308.03125 89.023438 C 307.378906 88.8125 306.65625 88.707031 306.621094 88.527344 C 306.515625 88.125 306.730469 87.472656 307 87.25 C 307.265625 87.03125 307.820312 87.300781 308.261719 87.375 Z M 309.34375 96.378906 C 309.320312 96.789062 309.273438 97.277344 309.199219 97.714844 C 308.785156 97.230469 308.390625 96.667969 308.023438 96.15625 C 308.074219 96.128906 308.074219 96.128906 308.09375 96.050781 C 308.214844 95.914062 309.363281 96.300781 309.34375 96.378906 Z M 309.34375 96.378906 " fill-opacity="1" fill-rule="nonzero"/></g></g></g></g><g clip-path="url(#00fdf560b2)"><g clip-path="url(#c595c11050)"><g clip-path="url(#26c9cb4194)"><g clip-path="url(#bd8e1167db)"><path fill="#7a49a9" d="M 157.886719 58.828125 L 157.828125 58.730469 L 157.773438 58.628906 C 157 57.761719 156.09375 56.769531 155.164062 55.859375 L 154.972656 55.644531 L 154.667969 55.6875 C 153.882812 55.816406 153.035156 56.175781 152.097656 56.722656 C 151.160156 57.269531 150.429688 57.828125 150.09375 58.15625 L 149.992188 58.214844 L 149.925781 58.320312 C 148.476562 61.738281 146.5625 65.03125 144.71875 68.21875 L 144.328125 68.910156 C 144.007812 69.492188 143.707031 69.996094 143.386719 70.578125 C 140.238281 76.175781 136.726562 81.722656 133.382812 87.101562 L 132.78125 88.109375 C 131.019531 90.984375 129.179688 93.839844 127.417969 96.714844 L 125.078125 100.523438 C 121.273438 106.699219 118.070312 111.863281 114.820312 117.058594 L 114.769531 117.089844 L 114.5 117.640625 C 114.339844 117.933594 114.226562 118.195312 114.09375 118.539062 L 114.074219 118.617188 C 113.578125 119.695312 113.105469 120.699219 112.710938 121.71875 L 112.691406 121.796875 L 112.667969 121.875 C 112.640625 122.617188 112.53125 123.339844 112.425781 124.0625 L 112.371094 124.425781 C 112.125 126.613281 111.875 128.675781 112.109375 130.78125 C 112.335938 132.757812 113.066406 134.578125 113.769531 136.347656 L 113.949219 136.769531 L 113.976562 136.820312 C 117.65625 142 120.753906 147.648438 123.714844 153.183594 C 124.984375 155.476562 126.035156 157.503906 127.210938 159.523438 C 132.195312 168.300781 136.824219 177.148438 140.699219 184.589844 L 140.730469 184.640625 L 140.757812 184.6875 C 141.203125 185.222656 141.574219 185.863281 141.820312 186.511719 L 141.90625 186.660156 L 142.089844 186.75 C 143.316406 187.488281 144.917969 187.742188 146.480469 187.359375 C 147.410156 187.144531 148.203125 186.683594 149.117188 186.214844 L 149.167969 186.1875 C 149.90625 185.753906 150.550781 185.382812 151.324219 185.125 L 151.425781 185.070312 L 151.496094 184.960938 C 152.378906 183.984375 153.234375 182.957031 154.082031 181.804688 C 155.082031 180.230469 155.992188 178.84375 156.953125 177.425781 C 158.773438 174.316406 160.425781 170.914062 162.035156 167.664062 L 162.148438 167.402344 C 162.941406 165.816406 163.800781 164 164.613281 162.335938 C 165.820312 159.980469 166.96875 157.53125 168.125 155.207031 L 168.378906 154.730469 C 171.226562 148.84375 174.140625 142.726562 177.679688 137.230469 L 177.71875 137.074219 C 178.261719 135.507812 178.871094 133.832031 179.429688 132.1875 C 175.238281 125.789062 171.230469 119.480469 167.320312 113.113281 C 167.261719 113.015625 167.175781 112.867188 167.167969 112.738281 L 167.132812 112.5625 L 166.996094 112.445312 C 163.644531 109.1875 162.078125 105.480469 162.230469 101.429688 C 162.507812 95.332031 166.839844 89.042969 172.191406 83.480469 C 171.53125 82.347656 170.902344 81.265625 170.269531 80.183594 C 168.949219 77.917969 167.5 75.660156 165.964844 73.253906 C 163.199219 68.730469 160.023438 63.851562 157.886719 58.828125 Z M 121.738281 136.980469 C 118.742188 136.152344 118.164062 132.664062 118.25 129.972656 C 118.40625 125.59375 121.863281 117.574219 127.605469 119.371094 C 130.5 120.257812 131.539062 123.742188 131.355469 126.488281 C 131.261719 127.800781 130.9375 129.175781 130.460938 130.507812 C 130.207031 131.316406 129.898438 132.15625 129.507812 132.847656 C 128.007812 135.371094 124.890625 137.847656 121.738281 136.980469 Z M 154.269531 162.625 C 155.453125 165.894531 155.503906 169.953125 153.265625 172.578125 C 152.363281 173.636719 151.246094 174.21875 150.128906 174.34375 C 148.917969 174.984375 147.574219 175.171875 146.171875 174.472656 C 143.953125 173.386719 143.136719 170.960938 142.988281 168.671875 C 142.816406 166.332031 143.382812 163.558594 144.644531 161.304688 C 145.222656 159.914062 146.117188 158.730469 147.28125 158.117188 C 147.480469 158.003906 147.65625 157.964844 147.863281 157.980469 C 147.910156 157.949219 147.960938 157.921875 148.011719 157.894531 C 148.109375 157.835938 148.15625 157.804688 148.285156 157.796875 C 148.285156 157.796875 148.335938 157.769531 148.335938 157.769531 C 149.910156 157.179688 151.6875 157.398438 152.902344 158.800781 C 153.839844 159.839844 154.183594 161.222656 154.269531 162.625 Z M 158.679688 122.441406 C 157.917969 124.996094 156.269531 127.605469 153.871094 128.9375 C 151.078125 130.5 148.199219 129.078125 147.300781 126.171875 C 146.726562 124.394531 146.617188 122.277344 146.949219 120.238281 C 146.796875 117.027344 147.8125 113.664062 150.070312 112.214844 C 152.679688 110.5625 156.023438 111.648438 157.664062 114.125 C 159.199219 116.527344 159.429688 119.757812 158.679688 122.441406 Z M 164.316406 123.378906 C 163.53125 123.507812 162.542969 122.496094 160.5625 121.476562 C 162.929688 120.886719 164.15625 120.5 165.402344 120.367188 C 165.914062 120.335938 166.441406 121.015625 166.976562 121.367188 C 166.125 122.058594 165.324219 123.183594 164.316406 123.378906 Z M 159.117188 70.121094 C 160.238281 74.085938 158.515625 79.183594 155.65625 82.101562 C 154.019531 83.714844 151.640625 84.96875 149.425781 83.886719 C 147.527344 83.011719 146.6875 80.664062 146.613281 78.726562 C 146.597656 77.222656 146.832031 75.699219 147.429688 74.226562 C 147.8125 71.824219 148.738281 69.441406 149.886719 67.78125 C 152.890625 63.523438 157.835938 65.65625 159.117188 70.121094 Z M 340.148438 123.820312 C 338.957031 123.589844 337.769531 123.027344 336.769531 122.558594 C 335.550781 121.945312 334.359375 121.257812 332.941406 120.300781 L 332.863281 120.28125 L 332.785156 120.257812 C 331.742188 119.945312 330.855469 119.667969 329.9375 119.34375 L 329.78125 119.304688 C 329.449219 119.300781 329.164062 119.269531 328.804688 119.214844 C 330.414062 120.386719 331.886719 121.441406 333.332031 122.449219 C 332.988281 122.648438 332.582031 123.085938 332.347656 123.023438 C 329.960938 122.105469 327.59375 121.109375 325.179688 120.140625 C 325.664062 119.726562 326.179688 119.359375 326.664062 118.945312 C 325.863281 118.816406 325.109375 118.660156 324.28125 118.484375 L 324.125 118.445312 L 323.976562 118.53125 C 323.75 118.597656 323.523438 118.664062 323.320312 118.652344 C 322.261719 118.539062 321.191406 118.175781 320.023438 117.535156 L 319.917969 117.464844 L 319.789062 117.472656 C 318.011719 117.257812 316.5 117.609375 314.871094 118.558594 C 313.6875 119.25 312.5 120.273438 311.554688 121.152344 C 311.507812 121.179688 311.457031 121.210938 311.359375 121.265625 C 311.308594 121.296875 311.261719 121.324219 311.210938 121.355469 L 310.984375 121.417969 L 310.894531 121.605469 C 308.527344 125.820312 304.121094 129.378906 300.597656 132.292969 C 292.71875 138.734375 285.5625 144.488281 278.15625 149.925781 C 276.859375 150.878906 275.691406 151.824219 274.652344 152.761719 C 269.273438 157.480469 260.40625 164.496094 256.605469 167.503906 L 255.507812 168.34375 L 255.457031 168.371094 C 251.171875 173.378906 246.148438 178.484375 239.21875 184.964844 C 238.574219 185.671875 237.984375 186.476562 237.796875 187.179688 C 237.601562 188.085938 237.953125 188.804688 238.886719 189.382812 L 238.964844 189.402344 L 239.042969 189.425781 C 243.191406 190.304688 247.335938 190.726562 250.886719 191.03125 C 260.96875 191.886719 269.414062 187.886719 276.320312 183.859375 C 276.914062 183.515625 277.554688 183.140625 278.144531 182.796875 C 285.882812 178.152344 294.0625 172.789062 303.125 166.453125 C 306.605469 164.027344 331.6875 142.871094 336.964844 134.914062 C 337.246094 134.488281 337.503906 134.136719 337.714844 133.816406 L 337.761719 133.789062 L 338.207031 132.738281 C 339.339844 130.03125 340.496094 127.246094 340.578125 124.558594 L 340.574219 124.097656 Z M 247.933594 185.625 C 246.65625 186.042969 243.390625 187.019531 242.3125 185.734375 C 241.484375 184.765625 243.097656 183.230469 243.726562 182.601562 C 245.410156 180.960938 247.398438 179.605469 249.335938 178.277344 C 250.460938 177.488281 251.617188 176.75 252.851562 176.03125 C 253.984375 175.367188 263.320312 169.265625 267.402344 169.128906 C 268.707031 169.097656 267.839844 170.789062 267.460938 171.273438 C 266.726562 172.164062 265.855469 172.9375 265.011719 173.757812 C 263.035156 175.699219 260.898438 177.476562 258.730469 179.199219 C 255.464844 181.761719 251.945312 184.34375 247.933594 185.625 Z M 260.035156 184.839844 C 258.984375 185.191406 256.269531 185.980469 255.382812 184.914062 C 254.71875 184.113281 256.019531 182.828125 256.574219 182.304688 C 257.972656 180.960938 259.613281 179.808594 261.203125 178.683594 C 262.164062 178.058594 263.121094 177.433594 264.109375 176.859375 C 265.046875 176.3125 272.808594 171.257812 276.226562 171.113281 C 277.324219 171.066406 276.570312 172.496094 276.261719 172.875 C 275.644531 173.628906 274.890625 174.265625 274.21875 174.921875 C 272.582031 176.539062 270.808594 178.03125 268.976562 179.429688 C 266.324219 181.570312 263.367188 183.753906 260.035156 184.839844 Z M 286.511719 173.5625 C 285.867188 174.269531 285.191406 174.925781 284.519531 175.582031 C 282.882812 177.199219 281.160156 178.664062 279.328125 180.0625 C 276.597656 182.179688 273.769531 184.359375 270.40625 185.394531 C 269.355469 185.742188 266.640625 186.53125 265.78125 185.515625 C 265.117188 184.714844 266.417969 183.429688 266.925781 182.9375 C 268.324219 181.59375 269.964844 180.4375 271.535156 179.390625 C 272.492188 178.765625 273.449219 178.140625 274.4375 177.566406 C 275.375 177.019531 283.089844 171.996094 286.429688 171.828125 C 287.527344 171.785156 286.820312 173.183594 286.511719 173.5625 Z M 321.519531 122.140625 C 321.746094 122.074219 322.496094 123.023438 322.449219 123.050781 C 321.859375 123.855469 321.214844 124.5625 320.425781 125.484375 C 319.300781 124.6875 318.449219 124.128906 317.671875 123.59375 C 318.972656 123.097656 320.210938 122.507812 321.519531 122.140625 Z M 291.785156 150.625 C 290.507812 151.042969 287.242188 152.019531 286.164062 150.734375 C 285.335938 149.769531 286.953125 148.230469 287.578125 147.601562 C 289.261719 145.960938 291.25 144.605469 293.1875 143.277344 C 294.3125 142.488281 295.46875 141.75 296.703125 141.03125 C 297.835938 140.367188 307.171875 134.265625 311.253906 134.128906 C 312.558594 134.097656 311.691406 135.789062 311.3125 136.273438 C 310.578125 137.164062 309.707031 137.9375 308.863281 138.757812 C 306.886719 140.699219 304.75 142.476562 302.582031 144.199219 C 299.316406 146.765625 295.824219 149.394531 291.785156 150.625 Z M 303.886719 149.839844 C 302.835938 150.191406 300.121094 150.980469 299.234375 149.914062 C 298.570312 149.113281 299.871094 147.828125 300.425781 147.304688 C 301.824219 145.960938 303.464844 144.808594 305.058594 143.683594 C 306.015625 143.058594 306.972656 142.433594 307.960938 141.859375 C 308.898438 141.3125 316.660156 136.257812 320.078125 136.113281 C 321.175781 136.066406 320.421875 137.496094 320.113281 137.875 C 319.496094 138.628906 318.746094 139.265625 318.070312 139.921875 C 316.433594 141.539062 314.660156 143.03125 312.832031 144.429688 C 310.207031 146.621094 307.25 148.804688 303.886719 149.839844 Z M 330.394531 138.613281 C 329.75 139.320312 329.074219 139.976562 328.398438 140.632812 C 326.761719 142.246094 325.039062 143.714844 323.207031 145.109375 C 320.476562 147.230469 317.648438 149.40625 314.285156 150.445312 C 313.234375 150.792969 310.523438 151.582031 309.664062 150.566406 C 309 149.765625 310.300781 148.480469 310.804688 147.984375 C 312.203125 146.644531 313.84375 145.488281 315.414062 144.441406 C 316.371094 143.816406 317.332031 143.191406 318.316406 142.617188 C 319.253906 142.070312 326.96875 137.046875 330.308594 136.878906 C 331.457031 136.804688 330.703125 138.234375 330.394531 138.613281 Z M 124.164062 132.070312 C 124.273438 132.597656 124.128906 133.144531 124.140625 133.730469 C 123.703125 133.65625 123.3125 133.554688 122.589844 133.449219 C 122.875 132.6875 123.046875 132.191406 123.21875 131.695312 C 123.53125 131.777344 124.128906 131.890625 124.164062 132.070312 Z M 124.816406 128.652344 C 124.371094 128.910156 123.726562 128.824219 122.582031 128.898438 C 123.105469 127.867188 123.242188 127.195312 123.65625 126.886719 C 123.953125 126.714844 124.761719 126.96875 125.039062 127.335938 C 125.261719 127.601562 125.0625 128.507812 124.816406 128.652344 Z M 124.816406 128.652344 " fill-opacity="1" fill-rule="nonzero"/></g></g></g></g><g fill="#ffffff" fill-opacity="1"><g transform="translate(67.029295, 335.22655)"><g><path d="M 35.632812 -3.207031 C 37.089844 -3.949219 42.914062 -6.640625 42.457031 -7.535156 L 41.941406 -9.105469 C 41.765625 -9.722656 41.535156 -10.453125 41.25 -11.015625 C 39.9375 -13.589844 38.566406 -15.996094 36.96875 -19.132812 L 35.023438 -22.945312 C 34.339844 -24.289062 33.707031 -25.800781 33.023438 -27.144531 C 32.679688 -27.816406 32.28125 -28.601562 31.992188 -29.445312 L 31.015625 -31.910156 C 30.386719 -33.144531 30.152344 -34.433594 29.578125 -35.835938 L 28.714844 -38.640625 L 28.480469 -46.851562 L 28.320312 -52.980469 L 28.175781 -56.578125 L 27.960938 -62.820312 L 27.511719 -69.789062 L 27.003906 -76.871094 L 26.683594 -81.929688 L 26.25 -86.933594 L 25.800781 -93.902344 L 25.449219 -95.699219 L 25.164062 -96.261719 C 24.597656 -96.539062 24.09375 -96.421875 23.53125 -96.136719 C 22.523438 -95.621094 11.484375 -90.414062 10.476562 -90.183594 C 11.234375 -86.757812 10.367188 -89.84375 11.160156 -81.921875 L 11.714844 -75.851562 L 12.445312 -68.882812 C 12.632812 -66.296875 12.769531 -63.542969 13.011719 -61.125 L 13.394531 -55.390625 L 13.53125 -52.636719 L 13.558594 -48.980469 C 12.597656 -49.761719 11.914062 -50.542969 10.894531 -51.433594 L 9.082031 -53.050781 L 7.210938 -55.0625 L 5.226562 -57.015625 C 4.601562 -57.683594 3.699219 -58.351562 3.015625 -59.132812 L 1.542969 -60.640625 C 0.863281 -61.421875 0.125 -62.316406 -0.667969 -63.042969 L -6.90625 -69.460938 L -10.933594 -73.476562 L -14.789062 -77.441406 C -16.65625 -79.167969 -18.414062 -80.953125 -20.171875 -82.457031 L -23.003906 -84.96875 C -23.738281 -85.578125 -24.363281 -86.25 -25.042969 -86.75 C -29.003906 -89.8125 -28.957031 -91.105469 -30.597656 -92.105469 L -45.71875 -84.394531 C -46.28125 -84.105469 -41.808594 -80.316406 -41.296875 -79.871094 L -34.324219 -72.839844 C -29.625 -68.886719 -25.367188 -64.140625 -22.875 -61.738281 L -21.0625 -60.125 C -20.496094 -59.566406 -19.589844 -58.898438 -18.964844 -58.226562 L -15.394531 -54.542969 C -13.863281 -52.925781 -12.21875 -51.363281 -10.628906 -49.632812 L -9.042969 -47.902344 L -6.601562 -45.335938 L -2.574219 -41.035156 L -0.195312 -38.582031 C 2.753906 -35.847656 5.417969 -33.113281 8.25 -30.324219 L 10.460938 -28.484375 L 15.828125 -17.953125 C 16.574219 -16.496094 17.425781 -15.097656 18.171875 -13.640625 L 23.996094 -2.214844 L 27.5625 0.625 C 30.308594 -0.632812 32.941406 -1.835938 35.632812 -3.207031 Z M 35.632812 -3.207031 "/></g></g></g><g fill="#ffffff" fill-opacity="1"><g transform="translate(124.778809, 304.947881)"><g><path d="M -9.113281 -72.542969 C -9.71875 -70.785156 -9.257812 -67.167969 -9.105469 -64.644531 L -7.914062 -57.320312 C -5.804688 -57.664062 -1.871094 -58.558594 1.8125 -59.410156 C 2.804688 -59.570312 3.632812 -59.960938 4.5 -60.101562 C 6.238281 -60.386719 8.308594 -60.976562 9.671875 -60.433594 C 9.710938 -60.183594 9.628906 -59.917969 9.667969 -59.667969 L 9.554688 -57.230469 C 9.550781 -56.464844 9.570312 -55.574219 9.441406 -54.789062 L 9.007812 -49.625 L 7.890625 -39.25 L 7.519531 -34.476562 L 7.152344 -25.753906 L 6.976562 -22.921875 C 6.742188 -21.226562 6.796875 -19.324219 6.832031 -17.546875 L 6.542969 -12.273438 L 6.332031 -6.507812 L 6.082031 -0.988281 C 6.117188 0.789062 5.902344 2.609375 5.792969 4.28125 L 5.761719 6.453125 C 5.566406 9.160156 5.140625 12.03125 5.503906 14.265625 L 5.625 15.011719 C 5.96875 17.121094 15.191406 16.640625 18.046875 16.179688 C 22.015625 15.53125 23.121094 13.695312 22.921875 6.976562 L 22.953125 4.042969 C 22.914062 3.027344 23.125 1.976562 23.109375 1.085938 L 23.183594 -1.601562 C 23.292969 -3.277344 23.441406 -4.703125 23.652344 -5.753906 C 27.339844 -7.375 32.261719 -7.664062 36.109375 -8.289062 L 43.183594 -9.4375 C 43.804688 -9.539062 44.28125 -9.746094 44.777344 -9.824219 C 45.277344 -9.90625 45.75 -10.109375 46.25 -10.191406 C 47.230469 -8.058594 48.996094 -5.03125 49.320312 -3.046875 L 50.507812 -0.4375 L 51.800781 2.027344 L 53.074219 4.371094 C 53.402344 4.828125 53.484375 5.324219 53.8125 5.777344 L 55.042969 7.871094 C 55.414062 8.578125 55.90625 9.261719 56.378906 9.820312 L 58.515625 8.835938 L 59.941406 8.222656 C 60.5625 8.121094 61.082031 8.164062 61.578125 8.085938 C 65.429688 6.695312 71.65625 5.042969 73.007812 3.167969 C 72.660156 2.589844 72.023438 1.800781 71.796875 1.199219 L 70.34375 -2.257812 L 69.707031 -3.8125 C 69.667969 -4.058594 69.503906 -4.289062 69.464844 -4.535156 C 69.34375 -5.28125 69.324219 -6.171875 69.203125 -6.914062 L 68.773438 -7.992188 C 68.550781 -8.59375 68.199219 -9.171875 67.851562 -9.753906 L 64.773438 -15.367188 C 64.382812 -16.195312 64.015625 -16.902344 63.5 -17.710938 L 62.082031 -20.15625 C 61.035156 -21.894531 60.257812 -23.550781 59.191406 -25.417969 L 57.878906 -28.007812 L 55.476562 -32.585938 L 54.71875 -34.117188 C 54.144531 -35.300781 53.550781 -36.605469 53.078125 -37.929688 L 51.425781 -42.628906 L 49.089844 -48.367188 L 47.023438 -53.253906 C 46.59375 -54.328125 46.039062 -55.386719 45.484375 -56.441406 L 44.335938 -58.804688 L 43.207031 -61.042969 L 41.035156 -65.785156 L 39.640625 -68.871094 C 40.140625 -68.953125 40.738281 -69.175781 41.234375 -69.257812 L 43.71875 -69.660156 C 44.585938 -69.800781 45.3125 -70.046875 46.179688 -70.1875 C 47.050781 -70.328125 47.917969 -70.472656 48.765625 -70.738281 L 51.1875 -71.511719 C 51.4375 -71.550781 51.808594 -71.613281 52.039062 -71.777344 C 52.949219 -72.4375 52.644531 -73.53125 52.441406 -74.773438 C 52.078125 -77.007812 50.996094 -85.242188 49.507812 -85 C 44.789062 -84.230469 39.410156 -82.847656 35.808594 -82.261719 L 33.699219 -81.921875 C 29.355469 -81.214844 25.523438 -79.699219 22.296875 -79.175781 L 15.777344 -77.734375 C 15.179688 -77.507812 14.679688 -77.429688 14.0625 -77.328125 L 8.972656 -76.5 C 8.101562 -76.359375 7.378906 -76.113281 6.507812 -75.972656 L 2.347656 -74.914062 C -1 -74.371094 -4.148438 -73.347656 -7.5 -72.804688 Z M 42.671875 -20.441406 L 27.902344 -18.039062 C 26.285156 -17.777344 24.902344 -17.679688 23.410156 -17.4375 L 21.550781 -17.132812 L 21.703125 -24.039062 C 21.601562 -24.660156 21.832031 -25.589844 21.855469 -26.230469 L 22.015625 -29.949219 L 22.453125 -35.882812 C 21.988281 -38.738281 22.726562 -42.042969 22.921875 -44.75 L 23.378906 -49.792969 L 23.957031 -55.621094 L 24.109375 -57.046875 C 24.28125 -58.347656 24.449219 -59.648438 24.496094 -60.929688 C 26.085938 -59.789062 27.308594 -56.164062 27.800781 -54.714844 L 28.292969 -53.265625 C 28.535156 -52.542969 29.007812 -51.980469 29.253906 -51.257812 L 30.113281 -49.105469 L 30.953125 -47.074219 L 31.566406 -45.644531 C 31.8125 -44.921875 32.285156 -44.359375 32.53125 -43.636719 L 34.210938 -39.578125 C 34.371094 -38.585938 35.132812 -37.816406 35.417969 -36.84375 L 37.117188 -32.660156 C 37.363281 -31.9375 37.835938 -31.375 38.082031 -30.652344 L 38.675781 -29.347656 C 39.125 -28.144531 39.554688 -27.066406 40.128906 -25.886719 L 41.707031 -22.449219 C 41.933594 -21.847656 42.199219 -21 42.671875 -20.441406 Z M 42.671875 -20.441406 "/></g></g></g><g fill="#ffffff" fill-opacity="1"><g transform="translate(186.004891, 293.038144)"><g><path d="M 78.707031 -60.410156 C 75.109375 -61.015625 72.09375 -61.273438 69.632812 -61.050781 L 68.550781 -59.191406 L 64.441406 -51.46875 L 63.359375 -49.613281 L 60.183594 -43.644531 L 57.359375 -38.253906 L 56.257812 -36.273438 L 55.136719 -34.167969 L 53.019531 -29.933594 L 51.191406 -26.671875 L 50.113281 -24.8125 L 49.382812 -23.535156 L 48.429688 -21.65625 L 47.351562 -19.796875 L 46.644531 -18.640625 C 46.832031 -19.757812 46.484375 -21.472656 46.425781 -22.632812 L 46.105469 -26.765625 L 45.84375 -30.507812 L 45.261719 -36.859375 L 44.613281 -42.835938 L 44.191406 -47.878906 L 43.644531 -52.945312 L 43.546875 -54.621094 L 42.816406 -61.632812 L 42.554688 -63.84375 L 42.394531 -65.910156 L 41.953125 -70.832031 L 41.910156 -71.351562 C 33.683594 -72.484375 26.574219 -73.433594 20.664062 -73.921875 C 19.785156 -68.714844 18.632812 -63.425781 17.359375 -58.15625 L 16.230469 -52.992188 C 16.105469 -52.246094 15.855469 -51.523438 15.730469 -50.78125 L 15.351562 -48.546875 C 14.660156 -44.457031 13.453125 -40.324219 12.738281 -36.109375 L 11.296875 -29.082031 C 11 -27.347656 10.523438 -26.023438 10.207031 -24.164062 C 10.105469 -23.542969 9.875 -22.945312 9.726562 -22.078125 C 9.582031 -21.210938 9.308594 -20.363281 9.121094 -19.246094 L 8.703125 -16.765625 C 8.386719 -14.90625 7.761719 -12.71875 7.324219 -10.878906 L 7.050781 -9.265625 C 6.882812 -8.273438 6.589844 -7.304688 6.445312 -6.433594 L 5.667969 -1.847656 C 5.25 0.632812 4.339844 1.5 7.191406 1.980469 L 9.421875 2.359375 C 14.878906 3.28125 19.671875 3.582031 23.953125 3.15625 L 24.058594 2.539062 C 24.351562 0.800781 24.769531 -0.914062 25.085938 -2.773438 C 25.253906 -3.765625 25.523438 -4.613281 25.667969 -5.480469 C 26.089844 -7.960938 26.613281 -10.292969 27.03125 -12.773438 L 29.234375 -25.792969 C 29.464844 -27.15625 29.613281 -28.789062 29.820312 -30.03125 L 30.449219 -33.75 C 30.703125 -35.238281 31.097656 -36.828125 31.328125 -38.195312 C 31.308594 -38.070312 31.410156 -37.925781 31.410156 -37.925781 C 31.472656 -36.765625 31.695312 -35.070312 31.898438 -34.015625 L 32.183594 -31.925781 L 32.914062 -25.683594 C 33.15625 -24.109375 33.109375 -22.332031 33.355469 -20.761719 L 33.902344 -15.695312 L 34.125 -13.234375 L 34.324219 -10.648438 L 34.910156 -5.066406 L 35.433594 0.125 L 36.140625 7.261719 C 38.664062 7.429688 41.289062 7.746094 44.160156 8.105469 L 45.054688 6.597656 L 48.0625 1.625 L 50.574219 -2.671875 L 51.820312 -4.753906 L 54.269531 -8.679688 L 59.375 -16.996094 L 61.660156 -20.691406 L 65.082031 -25.851562 L 67.300781 -29.175781 L 67.988281 -30.207031 L 68.339844 -30.785156 L 67.542969 -26.074219 C 67.480469 -25.703125 67.539062 -25.308594 67.476562 -24.9375 L 66.535156 -19.359375 C 66.304688 -17.992188 66.21875 -16.734375 65.964844 -15.246094 L 64.9375 -9.167969 C 64.8125 -8.425781 64.789062 -7.535156 64.664062 -6.792969 C 64.246094 -4.3125 63.949219 -1.8125 63.550781 0.542969 L 63.132812 3.023438 C 62.902344 4.386719 62.753906 6.019531 62.523438 7.386719 L 62.101562 9.863281 C 61.957031 10.734375 61.933594 11.621094 61.785156 12.488281 L 61.199219 15.960938 C 60.589844 19.558594 60.230469 23.195312 59.601562 26.914062 C 64.480469 27.484375 69.007812 27.867188 73.121094 27.671875 L 73.332031 26.429688 C 73.539062 25.191406 73.667969 23.683594 73.898438 22.316406 L 74.378906 19.464844 C 74.96875 15.996094 75.433594 11.738281 76.0625 8.015625 L 76.503906 5.414062 C 76.753906 3.925781 76.882812 2.414062 77.132812 0.929688 L 77.449219 -0.933594 C 77.761719 -2.792969 77.933594 -4.550781 78.246094 -6.410156 L 79.023438 -10.996094 C 79.335938 -12.855469 79.527344 -14.738281 79.84375 -16.597656 L 80.15625 -18.457031 C 80.40625 -19.945312 80.535156 -21.453125 80.789062 -22.941406 L 81.25 -25.671875 C 81.394531 -26.539062 81.417969 -27.425781 81.566406 -28.292969 C 82.613281 -34.496094 83.3125 -40.882812 84.339844 -46.957031 C 84.484375 -47.824219 84.507812 -48.714844 84.632812 -49.457031 L 84.925781 -51.195312 C 85.492188 -54.542969 85.726562 -57.4375 85.835938 -58.820312 C 83.273438 -59.507812 80.9375 -60.03125 78.707031 -60.410156 Z M 78.707031 -60.410156 "/></g></g></g><g fill="#ffffff" fill-opacity="1"><g transform="translate(258.034246, 305.402434)"><g><path d="M 29.042969 -44.101562 C 23.628906 -33.878906 23.222656 -23.703125 30.34375 -15.382812 C 31.929688 -13.542969 33.851562 -11.53125 35.613281 -9.746094 L 37.535156 -7.730469 C 38.195312 -7.097656 38.796875 -6.351562 39.398438 -5.605469 L 41.421875 -3.253906 C 43.226562 -1.019531 45.535156 1.34375 45.445312 5.277344 L 45.292969 6.90625 C 44.71875 9.875 44.058594 11.660156 42.644531 14.328125 C 42.351562 14.882812 41.945312 15.378906 41.597656 15.765625 L 40.964844 16.425781 C 39.394531 18.582031 38.132812 19.621094 35.753906 20.355469 L 34.960938 20.503906 C 33.097656 20.796875 31.035156 20.132812 29.253906 19.191406 C 25.476562 17.1875 23.546875 15.457031 26.03125 7.808594 C 27.269531 3.054688 31.5625 -0.21875 25.894531 -3.222656 C 21.449219 -5.574219 16.558594 -8.164062 12.277344 -10.289062 C 10.054688 -11.464844 9.015625 -10.308594 7.191406 -6.863281 L 6.78125 -6.085938 C 6.367188 -5.308594 6.125 -4.582031 5.882812 -3.855469 L 5.453125 -2.234375 C 5.019531 -0.613281 4.539062 0.835938 4.496094 2.523438 L 4.347656 4.152344 C 4.125 11.289062 3.96875 15.617188 12.199219 22.109375 L 14.910156 23.976562 C 16.074219 24.734375 17.460938 25.609375 18.792969 26.316406 L 21.683594 27.84375 C 24.90625 29.550781 28.351562 31.375 31.816406 32.355469 L 35.503906 33.457031 C 41.65625 35.003906 47.390625 35.195312 51.785156 32.542969 L 51.902344 32.320312 C 54.921875 30.644531 56.675781 27.875 58.378906 24.648438 C 61.851562 18.09375 63.644531 11.214844 63.449219 5.136719 C 63.449219 -2.121094 58.871094 -6.109375 53.425781 -11.414062 C 51.667969 -13.195312 49.796875 -15.039062 48.097656 -16.9375 L 44.214844 -21.695312 C 41.484375 -25.136719 40.496094 -28.644531 43.320312 -33.980469 L 44.378906 -35.980469 C 46.617188 -40.203125 49.21875 -43.238281 53.304688 -42.355469 C 54.199219 -42.164062 54.976562 -41.753906 55.976562 -41.222656 C 58.644531 -39.8125 59.855469 -38.601562 60.601562 -36.785156 C 61.59375 -33.554688 59.476562 -29.554688 58.449219 -26.539062 L 57.546875 -24.03125 C 56.226562 -20.460938 56.414062 -21.355469 55.957031 -18.609375 C 59.539062 -15.433594 69.367188 -9.804688 73.261719 -10.445312 C 75.203125 -11.691406 78.808594 -19.035156 79.472656 -21.101562 C 80.191406 -22.996094 81.082031 -24.945312 81.410156 -26.90625 L 81.742188 -29.148438 C 82.382812 -37.347656 78.023438 -43.355469 64.574219 -50.472656 L 60.464844 -52.652344 C 59.464844 -53.179688 58.464844 -53.710938 57.402344 -54.128906 L 53.558594 -55.738281 L 50.210938 -56.941406 L 47.527344 -57.511719 C 42.589844 -58.132812 38.496094 -56.3125 36.136719 -54.007812 C 34.816406 -52.855469 31.808594 -49.324219 29.042969 -44.101562 Z M 29.042969 -44.101562 "/></g></g></g></svg>